<?xml version="1.0" encoding="UTF-8"?>
<svg id="Layer_1" xmlns="http://www.w3.org/2000/svg" version="1.1" viewBox="0 0 313.9 102">
  <!-- Generator: Adobe Illustrator 29.5.1, SVG Export Plug-In . SVG Version: 2.1.0 Build 141)  -->
  <defs>
    <style>
      .st0 {
        fill: #636359;
      }

      .st1 {
        fill: #ed1c24;
      }
    </style>
  </defs>
  <g>
    <path class="st0" d="M5,93.7c-.4,0-.8,0-1.2,0-.4,0-.9,0-1.3,0-.4,0-.9,0-1.3-.2-.4,0-.8-.1-1.1-.2l4.5-18.6c.8-.2,1.6-.3,2.6-.4.9,0,1.8,0,2.6,0s1.8,0,2.6.2c.8.2,1.5.4,2,.7.6.3,1,.8,1.3,1.3.3.6.5,1.2.5,2,0,1.1-.3,2.1-1,3-.7.9-1.6,1.5-2.8,1.9.8.3,1.4.7,1.9,1.4.5.6.7,1.4.7,2.2,0,1.3-.3,2.3-.8,3.2-.5.9-1.2,1.6-2.1,2.1-.9.5-1.9.9-3.2,1.1-1.2.2-2.5.3-3.9.3ZM4.7,84.6l-1.6,6.8c.2,0,.5,0,.9,0,.4,0,.9,0,1.5,0s1.4,0,2.2-.2,1.5-.3,2.1-.6,1.2-.7,1.6-1.3c.4-.6.6-1.3.6-2.2s-.3-1.6-1-2-1.7-.7-3.1-.7h-3.3ZM5.2,82.5h2.6c.6,0,1.2,0,1.9-.2.6-.1,1.2-.3,1.7-.6.5-.3,1-.6,1.3-1.1.3-.5.5-1.1.5-1.8s-.4-1.6-1.1-2c-.7-.4-1.8-.6-3.2-.6s-1,0-1.4,0c-.5,0-.8,0-.9.1l-1.4,5.9Z"/>
    <path class="st0" d="M24.4,78.9c.2,0,.5,0,.7,0s.5,0,.8,0c.3,0,.5,0,.7.1.2,0,.4,0,.5.2l-.7,2.2c-.4-.1-.8-.3-1.3-.3-.5,0-.9-.1-1.4-.1s-.8,0-1.1,0-.7.1-1,.2l-2.9,12.2h-2.6l3.3-13.8c.7-.3,1.5-.5,2.4-.6.8-.2,1.7-.2,2.5-.2Z"/>
    <path class="st0" d="M28.3,93.6h-2.6l3.5-14.4h2.6l-3.5,14.4ZM31.3,76.6c-.4,0-.8-.1-1.1-.4-.3-.3-.4-.6-.4-1.1s.2-1.1.6-1.4c.4-.3.8-.5,1.2-.5s.8.1,1.1.4c.3.3.4.6.4,1.1s-.2,1-.6,1.3c-.4.3-.8.5-1.2.5Z"/>
    <path class="st0" d="M36.9,93.9c-1.4,0-2.4-.3-3-.9-.6-.6-1-1.5-1-2.7s.1-1.7.4-2.9l3-12.3,2.7-.4-1.1,4.5h4.9l-.5,2.2h-4.9l-1.5,6.4c-.2.9-.3,1.6-.3,2.3s.2,1,.5,1.3c.3.3.9.4,1.7.4s1.1,0,1.6-.3c.5-.2.9-.3,1.2-.5l.2,2.2c-.3.2-.7.3-1.4.5-.7.2-1.4.3-2.3.3Z"/>
    <path class="st0" d="M44.6,93.6h-2.6l3.5-14.4h2.6l-3.5,14.4ZM47.6,76.6c-.4,0-.8-.1-1.1-.4-.3-.3-.4-.6-.4-1.1s.2-1.1.6-1.4c.4-.3.8-.5,1.2-.5s.8.1,1.1.4c.3.3.4.6.4,1.1s-.2,1-.6,1.3c-.4.3-.8.5-1.2.5Z"/>
    <path class="st0" d="M51.8,91.8c.4,0,.8,0,1.2-.1.4,0,.7-.2,1.1-.4.3-.2.6-.4.7-.7s.3-.6.3-1.1,0-.5-.1-.7c0-.2-.2-.4-.4-.6-.2-.2-.5-.4-.8-.5-.3-.2-.7-.4-1.1-.6-.4-.2-.8-.4-1.2-.6-.3-.2-.7-.4-.9-.7-.3-.3-.5-.6-.6-1s-.2-.8-.2-1.4c0-1.4.5-2.5,1.5-3.3,1-.8,2.4-1.3,4.3-1.3s1.7,0,2.3.3,1.1.3,1.4.5l-1,2.1c-.3-.1-.7-.3-1.2-.5-.6-.2-1.2-.2-1.9-.2s-.7,0-1.1.1-.7.2-1,.4c-.3.2-.5.4-.7.7-.2.3-.3.6-.3,1s.2.9.6,1.2c.4.3,1,.7,1.7,1,.5.2.9.4,1.3.7s.7.5,1,.8c.3.3.5.6.6,1,.1.4.2.8.2,1.4,0,.8-.1,1.5-.4,2-.3.6-.7,1.1-1.2,1.5s-1.1.7-1.9.9c-.7.2-1.5.3-2.4.3s-1.2,0-1.7-.1c-.5,0-.9-.2-1.3-.3s-.7-.2-.9-.3-.4-.2-.6-.3l1-2.1c.1,0,.3.2.5.3.2.1.5.2.8.3.3.1.7.2,1.1.3.4,0,.8.1,1.2.1Z"/>
    <path class="st0" d="M58.9,93.6l5.1-21,2.7-.4-1.8,7.3c.4-.1.9-.3,1.3-.4.5,0,.9-.1,1.4-.1.8,0,1.5.1,2.1.3.6.2,1.1.5,1.5.9s.6.9.8,1.4c.2.6.3,1.2.3,1.8s-.1,1.7-.4,2.8l-1.8,7.4h-2.6l1.6-6.8c.1-.5.3-1,.4-1.6s.2-1,.2-1.5c0-.7-.2-1.3-.6-1.8-.4-.5-1.2-.7-2.3-.7s-.9,0-1.4.1c-.5,0-.9.2-1.2.3l-2.9,12h-2.6Z"/>
    <path class="st0" d="M87.8,94c-1.2,0-2.3-.2-3.2-.5-.9-.3-1.7-.8-2.3-1.5s-1.1-1.4-1.4-2.3c-.3-.9-.5-1.9-.5-3.1,0-1.7.3-3.2.8-4.8s1.3-2.8,2.2-4c1-1.2,2.1-2.1,3.5-2.8,1.4-.7,2.9-1,4.6-1s2.6.1,3.4.4,1.5.6,1.8.8l-1.1,2.2c-.4-.3-1-.5-1.7-.8-.7-.2-1.6-.4-2.6-.4s-2.4.3-3.4.9c-1,.6-1.9,1.4-2.6,2.3-.7.9-1.2,2-1.6,3.2-.4,1.2-.6,2.4-.6,3.5,0,3.6,1.6,5.4,4.7,5.4s1.3,0,1.8-.1c.5,0,1-.2,1.4-.3.4-.1.8-.3,1.1-.4.3-.1.6-.3.8-.4l.3,2.3c-.2.1-.5.3-.9.4-.4.1-.8.3-1.3.4-.5.1-1,.2-1.6.3-.6,0-1.2.1-1.9.1Z"/>
    <path class="st0" d="M99.9,93.9c-1.5,0-2.7-.4-3.6-1.3s-1.3-2.1-1.3-3.7.2-2.2.5-3.4c.3-1.2.8-2.3,1.5-3.3.7-1,1.5-1.8,2.6-2.5,1.1-.6,2.3-1,3.8-1s2.7.4,3.6,1.3,1.3,2.1,1.3,3.7-.2,2.2-.5,3.4c-.3,1.2-.8,2.3-1.5,3.3s-1.5,1.8-2.6,2.5c-1.1.6-2.3,1-3.8,1ZM100.4,91.7c.8,0,1.6-.2,2.2-.7.7-.5,1.2-1.1,1.7-1.8.5-.7.8-1.6,1-2.5.2-.9.4-1.8.4-2.6s-.2-1.7-.6-2.2-1.1-.8-2.1-.8-1.6.2-2.2.7c-.7.5-1.2,1.1-1.7,1.8-.5.7-.8,1.6-1,2.5-.2.9-.4,1.8-.4,2.6s.2,1.7.6,2.2c.4.6,1.1.8,2.1.8Z"/>
    <path class="st0" d="M112.9,87.2c0,.4-.2.8-.3,1.2,0,.4-.1.8-.1,1.1,0,.6.2,1.1.5,1.5.3.4.9.6,1.7.7l-.6,2.1c-.8,0-1.4-.1-1.9-.3-.5-.2-.9-.5-1.3-.8-.3-.3-.6-.8-.7-1.2-.1-.5-.2-1-.2-1.6s0-.9.1-1.3c0-.5.2-.9.3-1.4l3.5-14.5,2.7-.4-3.6,15.1Z"/>
    <path class="st0" d="M121.1,93.9c-.8,0-1.5-.1-2-.4-.5-.2-1-.6-1.3-1-.3-.4-.6-.9-.7-1.4-.1-.6-.2-1.1-.2-1.8s0-1,.1-1.4c0-.5.2-.9.3-1.4l1.8-7.4h2.6l-1.6,6.8c0,.4-.2.9-.4,1.5-.1.6-.2,1.1-.2,1.7s0,.7,0,1,.2.6.4.8c.2.2.4.4.7.6.3.1.7.2,1.1.2.8,0,1.5-.2,2.1-.5.6-.3,1.1-.7,1.5-1.2,0-.3,0-.6,0-.9,0-.3.1-.7.2-1l2.1-8.9h2.6l-2.2,9.1c0,.4-.2.8-.2,1.2s0,.8,0,1.2,0,.8.1,1.3c0,.4.2.9.4,1.4l-2.3.3c0-.2-.2-.4-.3-.7,0-.3-.2-.5-.2-.8-.2.2-.4.4-.7.6-.3.2-.6.4-1,.6s-.8.3-1.2.4c-.4.1-.9.2-1.4.2Z"/>
    <path class="st0" d="M147.1,78.9c.8,0,1.5.1,2.1.4s1,.6,1.4,1c.3.4.6.9.7,1.5.1.6.2,1.2.2,1.8s0,.8,0,1.3-.2.9-.3,1.4l-1.8,7.4h-2.6l1.6-6.8c0-.4.2-.9.3-1.4s.2-1,.2-1.6,0-.7-.1-1-.2-.6-.4-.9c-.2-.2-.5-.4-.8-.6-.4-.1-.8-.2-1.3-.2s-1.2.1-1.7.3c-.6.2-1,.5-1.4.7,0,.3,0,.5,0,.8,0,.2,0,.5,0,.7,0,.4,0,.9,0,1.3,0,.4-.1.9-.2,1.3l-1.8,7.4h-2.6l1.6-6.8c0-.4.2-.9.3-1.4s.2-1.1.2-1.6,0-.7-.1-1c0-.3-.2-.6-.4-.8-.2-.2-.4-.4-.7-.6-.3-.1-.7-.2-1.1-.2s-.9,0-1.3,0-.8.1-1.1.2l-2.9,12.2h-2.6l3.3-13.8c.8-.3,1.7-.5,2.7-.6,1-.2,1.9-.2,2.6-.2s1.4.1,2,.4c.5.3,1,.6,1.3,1.1.2-.1.4-.3.8-.4s.7-.3,1.1-.5.9-.3,1.4-.4c.5-.1,1-.2,1.5-.2Z"/>
    <path class="st0" d="M158.5,79.8c.4-.3.9-.5,1.5-.7.6-.2,1.1-.3,1.8-.3s1.5.1,2.1.4c.6.3,1.1.6,1.5,1.1.4.5.7,1,.9,1.6.2.6.3,1.3.3,2,0,1.3-.2,2.5-.6,3.7-.4,1.2-1,2.2-1.9,3.2-.8.9-1.9,1.7-3.1,2.2-1.2.6-2.7.8-4.4.8s-.6,0-.9,0c-.3,0-.7,0-1-.2-.3,0-.7-.2-1-.3-.3-.1-.6-.2-.8-.4l4.9-20.5,2.7-.4-1.8,7.7ZM161.1,81c-.6,0-1.1,0-1.6.3-.5.2-1.1.5-1.5.8l-2.2,9.4c.2,0,.4,0,.6.1.2,0,.5,0,.7,0,1.1,0,2-.2,2.8-.6s1.6-1,2.2-1.7,1-1.5,1.4-2.4c.3-.9.5-1.8.5-2.8s0-.8-.1-1.2c0-.4-.2-.7-.4-1-.2-.3-.5-.5-.9-.7-.4-.2-.8-.3-1.4-.3Z"/>
    <path class="st0" d="M169.8,93.6h-2.6l3.5-14.4h2.6l-3.5,14.4ZM172.8,76.6c-.4,0-.8-.1-1.1-.4-.3-.3-.4-.6-.4-1.1s.2-1.1.6-1.4c.4-.3.8-.5,1.2-.5s.8.1,1.1.4c.3.3.4.6.4,1.1s-.2,1-.6,1.3c-.4.3-.8.5-1.2.5Z"/>
    <path class="st0" d="M183.3,93.7c0-.2-.2-.4-.3-.7,0-.2-.2-.5-.2-.8-.4.4-.9.7-1.6,1.1-.7.4-1.5.6-2.5.6s-1.5-.1-2.1-.4c-.6-.3-1.1-.6-1.4-1.1-.4-.5-.6-1-.8-1.6-.2-.6-.3-1.3-.3-2.1,0-1.2.2-2.4.6-3.6.4-1.2,1-2.2,1.9-3.2.8-.9,1.9-1.7,3.1-2.2,1.3-.6,2.7-.9,4.4-.9s1.1,0,1.7.2c.7.1,1.2.3,1.7.6l-2.1,8.7c0,.4-.2.8-.2,1.2s0,.8,0,1.2,0,.9.1,1.3c0,.4.2.9.4,1.4l-2.3.3ZM179.2,91.7c.8,0,1.4-.2,2-.5.6-.3,1-.7,1.4-1.2,0-.3,0-.6,0-1,0-.3.1-.7.2-1l1.7-6.9c0,0-.2,0-.5,0-.2,0-.4,0-.6,0-1.1,0-2,.2-2.8.6-.8.4-1.6.9-2.2,1.6-.6.7-1.1,1.5-1.4,2.4s-.5,1.8-.5,2.8,0,.8.1,1.2c0,.4.2.7.4,1.1.2.3.5.6.8.7.3.2.7.3,1.3.3Z"/>
  </g>
  <g>
    <g>
      <path class="st0" d="M132,23.4c-.1,1,.1,1.5,1.3,1.5h3.7c2.5,0,3.2-.3,4.2-.7l-1.5,3.7h-11.7c-3.5,0-4.2-1.8-3.7-4.7.5-2.3.7-3.2,1.4-5.7.9-2.9,2.6-4.7,6-4.7h11.8l-.3,3.8c-.4-.5-1.5-.8-3.4-.8h-4.3c-1.2,0-1.6.4-2.1,1.5-.6,1.4-1.3,4.4-1.5,6.1Z"/>
      <path class="st0" d="M89.4,12.8v1.6c.8-1.1,1.3-1.6,2.4-1.6h6.4c3.5,0,4.3,1.9,3.6,4.7l-1.4,5.7c-.7,2.8-2.5,4.7-5.9,4.7h-5.9c-1.4,0-1.6-.9-1.6-1.5h0l-1.1,4.4c-.4,1.5-.3,2.2,0,2.8h-8.2l4.5-18c.4-1.5.3-2.2,0-2.8h7.4ZM88.3,24.9h2.4c1.2,0,1.6-.4,2.1-1.5.6-1.4,1.3-4.4,1.5-6.1.1-1-.1-1.5-1.3-1.5h-1.6s-.8,0-.8,0c-.7,0-1.1.3-1.3,1.2l-1.7,6.9c-.2.8,0,1.1.8,1.1h0Z"/>
      <path class="st0" d="M121,12.8h0s-.1,0-.1,0h-11.5c-3.3.1-4.9,1.9-5.7,4.7-.7,2.5-.9,3.4-1.4,5.7-.5,2.8.2,4.6,3.4,4.7h0s.3,0,.3,0h14.8l1.5-3.6c-1.4.5-2.2.6-3.6.6h-7.3c-.2,0-.4,0-.6,0-.7-.1-.9-.6-.8-1.5,0-.4.1-.9.2-1.4h12.9l1.2-4.6c.8-3.1.2-4.5-3.1-4.6ZM116.8,17l-.5,2.1h-5.5c.2-.7.4-1.3.6-1.7.5-1.2.9-1.5,2.1-1.5h2.6c.8,0,1,.4.8,1.2Z"/>
      <path class="st0" d="M146,16.3c.5-2.1.3-2.7,0-3.5h8.4l-2.9,11.6c-.5,2.1-.3,2.7,0,3.5h-9.3c.6-.8,1.2-1.4,1.7-3.5l2-8.2ZM155.8,7.3l-1,4h-7.5l1-4h7.5Z"/>
      <path class="st0" d="M172.4,12.8c3.2,0,4.7,1.4,3.7,5.7l-1.6,6.6c-.4,1.5-.3,2.2,0,2.8h-7.6v-1.9s0,.2,0,.2c-.7,1.3-1.4,1.7-3.5,1.7h-5.4c-3.4,0-4-1.4-3.3-4.6l.3-.9c.9-3.1,2.2-4.8,5.6-4.8h6.9c1.1,0,1.4-.3,1.5-1,.2-.8-.4-1-1-1h-7.5c-1.4,0-2.2.2-3.2.6l1.4-3.6h13.8ZM167.8,20.6h-3.1c-1.2,0-1.6,0-2,1.2,0,0-.3.7-.4,1.7,0,1,.1,1.4,1.3,1.4h1.8c1.2,0,1.7-.2,2.1-2.2l.5-1.9v-.3c0,0,0,0-.2,0Z"/>
      <path class="st0" d="M181.3,10.8c.5-2.1.3-2.7,0-3.5h8.4l-4.3,17.1c-.5,2.1-.3,2.7,0,3.5h-9.3c.6-.8,1.2-1.4,1.7-3.5l3.4-13.6Z"/>
      <path class="st0" d="M57.2,23.9c.3.5,1,.6,3,.8,2,.1,5.7.1,7.2,0,1.5-.1,2.2-.4,2.5-1.1.2-.5.2-.6.3-1.1.1-.8-.2-1.4-1.5-1.4,0,0-1.2,0-5.3,0-4,0-5.6-1.3-5.1-4.5.1-.9.4-2.1,1-4.2,1.1-3.4,3.2-5.1,6.9-5.1h14.1l-.2,4.2c-.5-.5-1.1-1-2.6-1h-8.2c-1.2,0-1.9.4-2.1,1.1-.3.6-.3,1-.4,1.4,0,.8.4,1.1,1.6,1.1h5.6c4.8,0,4.9,3.2,4.7,4.4-.1,1.2-.4,2.5-1,4.6-1.1,3.6-3.9,4.9-6.7,4.9h-14.3l.3-4.1Z"/>
    </g>
    <g>
      <path class="st0" d="M133.6,45.6c3.5,0,4.2,1.8,3.7,4.7-.5,2.3-.7,3.2-1.4,5.7-.9,2.9-2.6,4.7-6,4.7"/>
      <path class="st0" d="M156.5,56.2c-.1,1,.1,1.5,1.3,1.5h3.7c2.5,0,3.2-.3,4.2-.7l-1.5,3.7h-11.7c-3.5,0-4.2-1.8-3.7-4.7.5-2.3.7-3.2,1.4-5.7.9-2.9,2.6-4.7,6-4.7h11.8l-.3,3.8c-.4-.5-1.5-.8-3.4-.8h-4.3c-1.2,0-1.6.4-2.1,1.5-.6,1.4-1.3,4.4-1.5,6.1Z"/>
      <path class="st0" d="M124.8,45.6v1.6c.8-1.1,1.3-1.6,2.4-1.6h6.4c3.5,0,4.3,1.9,3.6,4.7l-1.4,5.7c-.7,2.8-2.5,4.7-5.9,4.7h-5.9c-1.4,0-1.6-.9-1.6-1.5h0l-1.1,4.4c-.4,1.5-.3,2.2,0,2.8h-8.2l4.5-18c.4-1.5.3-2.2,0-2.8h7.4ZM123.6,57.8h2.4c1.2,0,1.6-.4,2.1-1.5.6-1.4,1.3-4.4,1.5-6.1.1-1-.1-1.5-1.4-1.5h-1.6s-.8,0-.8,0c-.7,0-1.1.3-1.4,1.2l-1.7,6.9c-.2.8,0,1.1.8,1.1h0Z"/>
      <path class="st0" d="M52.6,43.6c.5-2.1.3-2.7,0-3.5h8.4l-4.3,17.1c-.5,2.1-.3,2.7,0,3.5h-9.3c.6-.8,1.2-1.4,1.7-3.5l3.4-13.6Z"/>
      <path class="st0" d="M64.2,60.8c-3.6,0-4.4-2-3.7-5.5l1.5-6.1c.5-2.1.3-2.8,0-3.5h8.4l-2.7,10.8c-.2.7,0,1.3.9,1.3h2.8c.6,0,1-.4,1.2-1.3l2-8c.5-1.9.4-2.2.1-2.9h8.2l-4.1,16.5c-.7,2.9-2.5,4.3-5.3,4.3h-14.9l.3-3.7c.6.4,1.3.7,3.1.7h7c1.5,0,1.9-.7,2.1-1.4l.6-2.7h0c-.6,1-1.3,1.3-2.8,1.3h-5Z"/>
      <path class="st0" d="M92.3,45.6l-.3,1.8h0c.4-.7,1.1-1.8,2.5-1.8h6.8c1.8,0,2.2.7,2.3,1.6h0c.3-.6.8-1.6,2.1-1.6h5.2c2.5,0,4.4.7,3.1,5.9l-1.4,5.7c-.5,2.1-.3,2.7,0,3.5h-8.6c.6-.8,1.2-1.4,1.7-3.5l1.9-7.6c.2-.8-.3-1.1-.7-1.1h-2.5c-.6,0-1,.3-1.2,1.1l-1.9,7.6c-.5,2.1-.3,2.7,0,3.5h-8.6c.6-.8,1.2-1.4,1.7-3.5l1.9-7.6c.1-.4-.1-1.1-.7-1.1h-2.5c-.6,0-1,.3-1.2,1.1l-1.9,7.6c-.5,2.1-.3,2.7,0,3.5h-8.6c.6-.8,1.2-1.4,1.7-3.5l2-8.2c.5-2.1.3-2.7,0-3.5h7.2Z"/>
      <path class="st0" d="M140.4,49.1c.5-2.1.3-2.7,0-3.5h8.4l-2.9,11.6c-.5,2.1-.3,2.7,0,3.5h-9.3c.6-.8,1.2-1.4,1.7-3.5l2-8.2ZM150.2,40.2l-1,4h-7.5l1-4h7.5Z"/>
      <path class="st0" d="M183.9,50.4c3.5,0,4.4,2.2,4,4l-.7,2.4c-.5,2-2.2,4-5.6,4h-14.2l.3-3.7c1.2.7,1.9.9,4.6.9h6.5c.8,0,1.1-.2,1.2-.8v-.3c.2-.6,0-1.1-.7-1.1h-6c-3.5,0-4.3-2-3.9-3.9l.7-2.5c.6-2.3,2.9-3.9,5.8-3.9h13.2l-.3,3.8c-.4-.8-2.5-1-4.3-1h-5.9c-.7,0-1.1.2-1.2.6l-.2.6c0,.4,0,.8.8.8h5.9Z"/>
      <path class="st0" d="M25.4,46.2c1.5-4.8,2.8-5.9,6.7-6.1,3.9-.2,9.7-.2,13.2,0,3.1.1,4.5,1.9,3.7,6.1-.8,4.1-.9,4.4-2.1,8.5-1.3,4.5-2.8,6-6.7,6.1-3.6.1-9.2.1-13.2,0-3.3,0-4.6-1.9-3.7-6.1,1-4.7,1.2-5.6,2.1-8.5ZM40.9,45.1c.1-.8-.3-1.5-1.2-1.6-1.1,0-2.2,0-3.4,0-.7,0-1.5.3-1.9,1.4-.5,1.3-2.2,8.6-2.7,10.8-.2.8.2,1.5,1.2,1.6,1.1,0,2.1,0,3.4,0,.8,0,1.6-.6,1.9-1.4.6-1.8,2.5-9.8,2.7-10.8Z"/>
    </g>
  </g>
  <g>
    <path class="st1" d="M217.5,37.6c1.9.8,4.5-.8,5.7-3.7,1.2-2.9.7-5.9-1.2-6.7-1.9-.8-4.5.8-5.7,3.7-.9,2.1-.8,4.2,0,5.5.3.5.7.9,1.3,1.2Z"/>
    <path class="st1" d="M240,7c1.9,0,3.5-1.6,3.5-3.5s-1.6-3.5-3.5-3.5-3.5,1.6-3.5,3.5,1.6,3.5,3.5,3.5Z"/>
    <path class="st1" d="M240.3,15.2c-.5,4.5-.9,13.8,0,20.2,0,0,2.9-.8,2.9-.9-.5-7.1-.4-14.4.2-20.5,5.5,1.9,9.2,3.6,12,5,.7-.8,1.3-1.6,2-2.4-3.1-1.9-11.8-5.4-11.9-5.4,2-.6,8.9-1.8,15.8-2,0,0,0-2.4,0-2.4-6.3-.2-15.2,1.8-16,2,4.3-3.2,8.6-5.1,12.3-6.9-.3-.2-1.6-1.2-1.6-1.2-8,3.3-14,8.3-14.1,8.3-1.1,1-.9,1.5-1.5,6.1Z"/>
    <path class="st1" d="M221.3,23.3c6.3-5.7,12.8-8.3,12.7-8.2-5,4.7-8,8.6-10,11.4.4.5.6,1,1,1.5,5.8-7.4,6.1-7.7,10.1-11.5,0,0-1.4,8.1-.1,20.6,0,0,2.7-1,2.7-.9-.3-6.7-1.1-14.6.6-23.2.5-2.5-.4-2.8-8.9-4.2-.6.6-.9.9-2.2,2.1l7.4,1.5c-8.6,3.5-13.9,9.3-13.9,9.3,0,0,.6,1.6.7,1.5Z"/>
    <path class="st1" d="M285.9,7c1.9,0,3.5-1.6,3.5-3.5s-1.6-3.5-3.5-3.5-3.5,1.6-3.5,3.5,1.6,3.5,3.5,3.5Z"/>
    <path class="st1" d="M264.7,9.3c6.9.1,13.7,1.4,15.8,2,0,0-8.8,3.5-11.9,5.4.7.8,1.2,1.6,2,2.4,2.9-1.4,6.6-3.1,12-5,.6,6.1.7,13.4.2,20.5,0,0,2.9.9,2.9.9.8-6.4.5-15.6,0-20.2-.6-4.6-.4-5.1-1.5-6.1,0,0-6.1-5-14.1-8.3,0,0-1.3,1-1.6,1.2,3.8,1.8,8,3.7,12.3,6.9-.9-.2-9.7-2.2-16-2,0,0,0,2.4,0,2.4Z"/>
    <path class="st1" d="M287.6,13c1.7,8.6,1,16.4.6,23.2,0-.1,2.7.9,2.7.9,1.2-12.5-.1-20.5-.1-20.6,4.1,3.8,4.3,4.1,10.1,11.5.4-.5.6-1,1-1.5-2-2.9-5-6.8-10-11.4,0,0,6.4,2.5,12.7,8.2,0,0,.7-1.5.7-1.5,0,0-5.3-5.8-13.9-9.3l7.4-1.5c-1.3-1.2-1.7-1.5-2.2-2.1-8.5,1.3-9.4,1.7-8.9,4.2Z"/>
    <path class="st1" d="M214.6,39.4c-1.1-4.3.6-10.1.6-10-2.2,7.5-4.6,14.4-1.5,31.5-.7-4-.3-12.8.1-15.7.3-2,1.3-3.8.8-5.9Z"/>
    <path class="st1" d="M230,40.7c-3.9.9-9,2-13,2.2-1.1,0-1.4,1.4-1.5,1.8-3.4,12.3.6,29.3,10.3,39.5,0,0,.1-.2.1-.2-6.6-8.9-8.5-16-9.6-29.4,0,0,2.2,9,7.7,16.7,0,0,1.2-2.3,1.3-2.5-3.4-5.6-6.3-12-7.8-17.2,1.2,3.9,9.1,9.7,12,11.2l.5-4.6c-.3-.2-8.2-4.3-12.3-11.2,0,0,10.2-1.4,12.6-2.4-.2-1.2-.3-4-.4-4Z"/>
    <path class="st1" d="M309.7,43c-4-.3-9.5-1.3-13.4-2.2,0,0-.2,2.8-.4,4,2.4,1,12.5,2.4,12.6,2.4-4,6.9-12,11-12.2,11.2l.5,4.6c2.9-1.4,10.8-7.2,12-11.2-1.5,5.2-4.4,11.6-7.8,17.2.2.2,1.4,2.4,1.3,2.5,5.5-7.8,7.7-16.6,7.7-16.7-1,13.4-3,20.5-9.6,29.4,0,0,.1.2.1.2,9.7-10.3,13.7-27.2,10.3-39.5-.1-.5-.4-1.8-1.1-1.8Z"/>
    <path class="st1" d="M303,33.2c1,3,3.3,4.9,5.3,4.2.6-.2,1-.5,1.4-1,.9-1.3,1.1-3.3.5-5.5-1-3.6-3.3-5.3-5.3-4.7-2,.6-2.8,4-1.9,6.9Z"/>
    <path class="st1" d="M311,29.5c0-.1,1.7,5.7.6,10-.5,2.1.4,3.9.8,5.9,1,6.3.8,11.7.1,15.7,3.1-17.1.7-24-1.5-31.5Z"/>
    <path class="st1" d="M270.5,48.5c0-4.2-3.4-7.7-7.7-7.7s-7.7,3.4-7.7,7.7,3.4,7.7,7.7,7.7,7.7-3.4,7.7-7.7Z"/>
    <path class="st1" d="M294.1,59.3c-9.5,4.5-16.5,5.5-21.2,6.3,8.2-6.4,11.9-11,15.3-15.6-.6-.5-.9-.8-2.9-3-1.8,2.4-6.4,8.8-16.6,16.2-1.9,1.4-2.5,1.9-3.1,3.2-.2.6-.2,1.7-.2,2.5,0,3.8-.6,32.8-.6,33,1,0,4.1-.2,4.1-.2,1.2-12.9,1.5-18,1.5-23.8,0-2.1,0-3.8,0-4,6.7,3.4,11.3,5.2,16.9,7.2.3-.4,2.5-3.8,2.5-3.7-5.3-2.4-10.7-4.5-15.9-7.1,7.9-1.5,13.7-2.8,20.7-6.5.1,0-.6-4.5-.5-4.6Z"/>
    <path class="st1" d="M260.9,69c0-.8,0-2-.2-2.5-.6-1.3-1.1-1.8-3.1-3.2-10.1-7.4-14.8-13.8-16.6-16.2-2,2.2-2.3,2.5-2.9,3,3.4,4.5,7.1,9.1,15.3,15.6-4.8-.8-11.8-1.8-21.2-6.3.1,0-.6,4.5-.5,4.6,7,3.7,12.8,5,20.7,6.5-5.2,2.6-10.6,4.6-15.9,7.1,0,0,2.2,3.3,2.5,3.7,5.6-2,10.2-3.8,16.9-7.2,0,.2.1,1.9.1,4,0,5.8.3,10.9,1.5,23.8,0,0,3.1.2,4.1.2,0-.2-.6-29.2-.6-33Z"/>
    <path class="st1" d="M252.1,97.4c0-.7-.4-1.1-1.4-1.1h-1.7v4h.5v-1.8h.9l1.1,1.8h.6l-1.2-1.8c.7,0,1.3-.3,1.3-1.1ZM250.2,98.1h-.7v-1.4h1.1c.5,0,1,0,1,.7s-.8.7-1.4.7Z"/>
    <path class="st1" d="M250.3,94.7c-2,0-3.6,1.6-3.6,3.6s1.6,3.6,3.6,3.6,3.6-1.6,3.6-3.6-1.6-3.6-3.6-3.6ZM250.3,101.4c-1.7,0-3-1.4-3-3.1s1.3-3.1,3-3.1,3,1.4,3,3.1-1.3,3.1-3,3.1Z"/>
  </g>
</svg>